<svg id="Group_38" data-name="Group 38" xmlns="http://www.w3.org/2000/svg" width="240" height="52.833" viewBox="0 0 240 52.833">
  <g id="Group_36" data-name="Group 36">
    <g id="Group_35" data-name="Group 35">
      <path id="Path_198" data-name="Path 198" d="M39.143,0V29.818H26.117v-11.7H15.126v11.7H2.1V0H15.126V12.823H26.117V0Z" transform="translate(0.037)" fill="#1ba084"/>
      <path id="Path_199" data-name="Path 199" d="M41.318,37.4a5.053,5.053,0,0,1-4.478,4.987,18.516,18.516,0,0,1-32.362-.1A4.882,4.882,0,0,1,0,37.4H10.177a4.835,4.835,0,0,1-.611,2.442,13.046,13.046,0,0,0,11.093,6.411,12.7,12.7,0,0,0,11.093-6.411,4.835,4.835,0,0,1-.611-2.442Z" transform="translate(0 0.982)" fill="#1ba084"/>
    </g>
  </g>
  <g id="Group_37" data-name="Group 37" transform="translate(41.757 8.669)">
    <path id="Path_200" data-name="Path 200" d="M52.932,29.669V27.736c-1.119,1.425-3.664,2.442-6.208,2.442-3.053,0-7.124-2.137-7.124-6.818,0-5.088,3.969-6.615,7.124-6.615,2.646,0,5.088.814,6.208,2.239V16.847c0-1.425-1.323-2.544-3.867-2.544a9.977,9.977,0,0,0-5.7,2.035l-2.646-4.783A15.991,15.991,0,0,1,50.489,8.4c5.088,0,10.075,1.832,10.075,8.65V29.568H52.932Zm0-5.6V22.953a3.994,3.994,0,0,0-3.053-1.119c-1.323,0-2.646.407-2.646,1.73s1.425,1.628,2.646,1.628A3.994,3.994,0,0,0,52.932,24.072Z" transform="translate(-39.6 -8.4)" fill="#1ba084"/>
    <path id="Path_201" data-name="Path 201" d="M69.634,27.529V37.6H61.9V9.109h7.734v2.137a7.236,7.236,0,0,1,5.8-2.646c5.088,0,9.057,3.765,9.057,10.787,0,7.124-3.969,10.889-9.057,10.889A7.673,7.673,0,0,1,69.634,27.529Zm7.022-8.141a3.766,3.766,0,0,0-3.867-3.969,4.337,4.337,0,0,0-3.155,1.425v5.292a4.766,4.766,0,0,0,3.155,1.425A4.006,4.006,0,0,0,76.656,19.387Z" transform="translate(-39.206 -8.396)" fill="#1ba084"/>
    <path id="Path_202" data-name="Path 202" d="M92.934,27.529V37.6H85.2V9.109h7.734v2.137a7.236,7.236,0,0,1,5.8-2.646c5.088,0,9.057,3.765,9.057,10.787,0,7.124-3.969,10.889-9.057,10.889A7.673,7.673,0,0,1,92.934,27.529Zm6.92-8.141a3.766,3.766,0,0,0-3.867-3.969,4.337,4.337,0,0,0-3.155,1.425v5.292a4.766,4.766,0,0,0,3.155,1.425A3.943,3.943,0,0,0,99.855,19.387Z" transform="translate(-38.794 -8.396)" fill="#1ba084"/>
    <path id="Path_203" data-name="Path 203" d="M108,19.387c0-5.8,4.274-10.787,11.6-10.787s11.6,5.088,11.6,10.787-4.274,10.889-11.6,10.889C112.274,30.175,108,25.086,108,19.387Zm15.265,0a3.633,3.633,0,0,0-3.765-3.969c-2.341,0-3.664,1.73-3.664,3.969,0,2.341,1.323,4.071,3.664,4.071C121.942,23.458,123.265,21.626,123.265,19.387Z" transform="translate(-38.391 -8.396)" fill="#1ba084"/>
    <path id="Path_204" data-name="Path 204" d="M145.044,29.666v-11.4c0-2.137-1.119-2.951-2.951-2.951a4.028,4.028,0,0,0-3.257,1.628V29.666H131V9.109h7.734v2.341A9.336,9.336,0,0,1,145.858,8.6c4.783,0,6.92,2.951,6.92,6.513V29.768h-7.734Z" transform="translate(-37.984 -8.396)" fill="#1ba084"/>
    <path id="Path_205" data-name="Path 205" d="M153.5,19.387c0-5.8,4.274-10.787,11.6-10.787s11.6,5.088,11.6,10.787-4.274,10.889-11.6,10.889C157.672,30.175,153.5,25.086,153.5,19.387Zm15.265,0A3.633,3.633,0,0,0,165,15.418c-2.341,0-3.664,1.73-3.664,3.969,0,2.341,1.323,4.071,3.664,4.071C167.442,23.458,168.765,21.626,168.765,19.387Z" transform="translate(-37.587 -8.396)" fill="#1ba084"/>
    <path id="Path_206" data-name="Path 206" d="M203.76,29.666V17.657a2.134,2.134,0,0,0-2.341-2.341,3.918,3.918,0,0,0-3.155,1.628V29.666H190.53V17.657a2.134,2.134,0,0,0-2.341-2.341,4.1,4.1,0,0,0-3.155,1.628V29.666H177.3V9.109h7.734v2.341A9.3,9.3,0,0,1,191.853,8.6c2.951,0,4.987,1.018,5.9,3.664A8.826,8.826,0,0,1,204.981,8.6c3.765,0,6.411,1.934,6.411,6.208v14.96H203.76Z" transform="translate(-37.166 -8.396)" fill="#1ba084"/>
    <path id="Path_207" data-name="Path 207" d="M214.264,30.878a3.223,3.223,0,0,0,1.628.407c1.527,0,2.442-.305,2.646-.814l.2-.407L210.6,9.1h8.141l3.969,11.805L226.679,9.1h8.141l-8.956,23.2c-1.832,4.783-5.292,5.7-9.566,5.8a16.148,16.148,0,0,1-2.951-.305Z" transform="translate(-36.577 -8.388)" fill="#1ba084"/>
  </g>
</svg>
